<svg xmlns="http://www.w3.org/2000/svg" width="120" height="120"><path d="M56.6 119.6c-23.3-1.2-45-17.3-52.6-39.3-8.7-23-1-51 18-66.4C40-2 67.4-5 88.2 7c21 11 33.8 34.8 31.5 58-1.8 24.5-20 46.4-43.7 52.5-6.3 1.8-13 2.5-19.4 2zm8-6c22-1.5 42-18 47.5-39.4 6-20.3-1-43.7-18-56.6C76 2.8 48 2 29 15.8 13 26.8 4 47 6.5 66.3c2.2 21.2 18.4 40 39 45.5 6 1.8 12.6 2 19 1.7zm12-13.5C73 101 61.8 81 60 78c-3.2 4.7-5.3 13-6.6 18-4.6 5.7-9-5.2-12.2-8-7-10-10.4-22.5-11.5-35-.5-10 .4-21.3 7-30 3-3.3 4.3 0 2.8 2.5C33 38.5 32.3 54 36.2 68c2.5 9 6 18.2 13 25 .2-7.8 4.6-14.4 8-20.8-4.7-11.2-8.8-24-5.3-36C55 29 63 38 62 43c.3 3.3.5 5.4 2.6 1.8 2.7-5 11-7.4 13-.5 1.3 5.6-3.4 10.4-5.8 15-3.4 5-6.3 10.4-10 15 4 8 8.5 15.8 14.2 22.7 6.6-16.3 8-34 9.6-51.3 0-7.4.5-15.4-3.2-22 5.5 0 6.7 9 7.4 13.7 1 15.2-2 30.3-4 45.3-1.3 5.7-2.5 12.2-6.7 16.5-1 .3-2 1.5-3 1zm-9.8-41c2.6-4.3 6.6-9 7.6-14-6.2 2.5-9.4 9-13 14-3.8 7-2.8-2-2-6.2.5-5.7.3-12.2-2.3-14-3 4.8-1 11-1 16.5 1 4.3 2 12.3 5 14L67 59z" fill="#67c39e"/></svg>
